<svg width="120" height="120" viewBox="0 0 120 120" fill="none" xmlns="http://www.w3.org/2000/svg">
<path d="M29.2637 44.4514C28.2027 46.4833 26.5402 48.1381 24.5033 49.1897L50.6371 75.4254L56.9376 72.2323L29.2637 44.4514ZM63.7349 79.0558L57.4344 82.2488L70.6764 95.5426C71.7376 93.5103 73.4004 91.8552 75.4378 90.8036L63.7349 79.0558Z" fill="white"/>
<path d="M79.1764 62.3304L80.2672 69.3082L97.0075 60.824C95.4026 59.1871 94.3423 57.0946 93.9715 54.8323L79.1764 62.3304ZM70.5874 66.6831L35.6053 84.4119C37.2105 86.0489 38.2709 88.1417 38.6418 90.4042L71.6783 73.6612L70.5874 66.6831Z" fill="white"/>
<path d="M42.4575 55.9661L47.4413 60.9692L65.3137 26.0789C63.0533 25.6965 60.9662 24.6256 59.3375 23.0124L42.4575 55.9661ZM38.0673 64.5371L29.5172 81.2287C31.7772 81.611 33.8641 82.6819 35.4928 84.2949L43.0508 69.5398L38.0673 64.5371Z" fill="white"/>
<path d="M24.3582 49.2629C22.3075 50.2879 19.9904 50.6547 17.7234 50.3131L22.716 82.2476C24.7665 81.2228 27.0834 80.856 29.3502 81.1975L24.3582 49.2629Z" fill="white"/>
<path d="M38.6684 90.5623C39.0073 92.8295 38.6379 95.1461 37.6107 97.1955L69.5398 102.319C69.2009 100.052 69.5703 97.7353 70.5975 95.6859L38.6684 90.5623Z" fill="white"/>
<path d="M82.3823 89.7119C84.6429 90.0942 86.7303 91.1653 88.3591 92.7787L103.096 64.0079C100.836 63.6255 98.7485 62.5543 97.1198 60.9408L82.3823 89.7119Z" fill="white"/>
<path d="M77.0199 20.2485C75.9587 22.2808 74.2959 23.9359 72.2585 24.9874L95.0816 47.8985C96.1426 45.8662 97.8054 44.2112 99.8425 43.1596L77.0199 20.2485Z" fill="white"/>
<path d="M27.3379 31.5253C28.9429 33.1622 30.0032 35.2547 30.3741 37.5169L59.2248 22.8953C57.6201 21.2586 56.5598 19.1663 56.1889 16.9043L27.3379 31.5253Z" fill="white"/>
<path d="M72.2058 25.0139C70.1639 26.0564 67.8498 26.4429 65.5799 26.1206L68.1355 42.4853L75.1089 43.6042L72.2058 25.0139ZM69.6209 51.9991L75.6633 90.6902C77.7226 89.6826 80.0429 89.3354 82.3069 89.6962L76.5945 53.1177L69.6209 51.9991Z" fill="white"/>
<path d="M30.3947 37.6396C30.7415 39.9056 30.3803 42.2234 29.3603 44.2763L45.7376 46.9067L48.9565 40.6206L30.3947 37.6396ZM58.4637 42.1473L55.2445 48.434L93.9406 54.6487C93.6075 52.3804 93.9829 50.0646 95.0156 48.0178L58.4637 42.1473Z" fill="white"/>
<path d="M57.0559 14.5585C56.9836 15.8853 57.1734 17.2133 57.6144 18.4668C58.0553 19.7203 58.7389 20.8746 59.626 21.8639C60.5131 22.8532 61.5863 23.6581 62.7845 24.2326C63.9827 24.8072 65.2823 25.14 66.6091 25.2123C67.9359 25.2846 69.2639 25.0948 70.5174 24.6538C71.7709 24.2129 72.9252 23.5293 73.9145 22.6422C74.9038 21.7551 75.7087 20.6818 76.2832 19.4837C76.8577 18.2855 77.1906 16.9859 77.2629 15.6591C77.3352 14.3323 77.1454 13.0043 76.7044 11.7508C76.2634 10.4973 75.5799 9.34297 74.6928 8.35366C73.8057 7.36436 72.7324 6.55948 71.5343 5.98496C70.3361 5.41044 69.0365 5.07754 67.7097 5.00527C66.3829 4.933 65.0548 5.12278 63.8014 5.56376C62.5479 6.00474 61.3936 6.68829 60.4043 7.57539C59.415 8.46248 58.6101 9.53575 58.0356 10.7339C57.461 11.9321 57.1281 13.2317 57.0559 14.5585Z" fill="white"/>
<path d="M94.8386 52.4875C94.6926 55.1671 95.6171 57.7949 97.4087 59.7929C99.2003 61.7909 101.712 62.9953 104.392 63.1413C107.071 63.2872 109.699 62.3627 111.697 60.5712C113.695 58.7796 114.9 56.2677 115.046 53.5881C115.118 52.2613 114.928 50.9333 114.487 49.6798C114.046 48.4263 113.363 47.272 112.475 46.2827C111.588 45.2934 110.515 44.4885 109.317 43.914C108.119 43.3395 106.819 43.0066 105.492 42.9343C102.813 42.7883 100.185 43.7128 98.187 45.5044C97.1977 46.3915 96.3928 47.4648 95.8183 48.6629C95.2438 49.8611 94.9109 51.1607 94.8386 52.4875Z" fill="white"/>
<path d="M70.4335 100.132C70.3612 101.459 70.551 102.787 70.992 104.04C71.433 105.294 72.1165 106.448 73.0036 107.437C73.8907 108.426 74.964 109.231 76.1621 109.806C77.3603 110.38 78.6598 110.713 79.9867 110.786C81.3135 110.858 82.6415 110.668 83.895 110.227C85.1485 109.786 86.3028 109.103 87.2921 108.215C88.2814 107.328 89.0863 106.255 89.6608 105.057C90.2353 103.859 90.5682 102.559 90.6405 101.232C90.7127 99.9056 90.523 98.5775 90.082 97.3241C89.641 96.0706 88.9575 94.9163 88.0704 93.927C87.1833 92.9377 86.11 92.1328 84.9119 91.5583C83.7137 90.9837 82.4141 90.6508 81.0873 90.5786C79.7605 90.5063 78.4324 90.6961 77.179 91.1371C75.9255 91.578 74.7712 92.2616 73.7819 93.1487C72.7926 94.0358 71.9877 95.109 71.4132 96.3072C70.8387 97.5054 70.5058 98.8049 70.4335 100.132Z" fill="white"/>
<path d="M17.5675 91.6486C17.4216 94.3282 18.3461 96.956 20.1376 98.954C21.9292 100.952 24.4411 102.156 27.1207 102.302C29.8003 102.448 32.4282 101.524 34.4261 99.7323C36.4241 97.9407 37.6286 95.4288 37.7745 92.7492C37.9205 90.0696 36.996 87.4418 35.2044 85.4438C34.3173 84.4545 33.2441 83.6496 32.0459 83.0751C30.8478 82.5006 29.5482 82.1677 28.2214 82.0954C25.5417 81.9494 22.9139 82.8739 20.9159 84.6655C18.9179 86.4571 17.7135 88.969 17.5675 91.6486Z" fill="white"/>
<path d="M9.29971 38.7613C9.22744 40.0881 9.41721 41.4162 9.85819 42.6696C10.2992 43.9231 10.9827 45.0775 11.8698 46.0668C12.7569 47.0561 13.8302 47.8609 15.0283 48.4355C16.2265 49.01 17.5261 49.3429 18.8529 49.4151C20.1797 49.4874 21.5077 49.2976 22.7612 48.8567C24.0147 48.4157 25.169 47.7321 26.1583 46.845C27.1476 45.9579 27.9525 44.8847 28.527 43.6865C29.1015 42.4884 29.4344 41.1888 29.5067 39.862C29.579 38.5352 29.3892 37.2071 28.9482 35.9536C28.5072 34.7002 27.8237 33.5458 26.9366 32.5565C26.0495 31.5672 24.9762 30.7624 23.7781 30.1878C22.5799 29.6133 21.2803 29.2804 19.9535 29.2082C18.6267 29.1359 17.2987 29.3257 16.0452 29.7666C14.7917 30.2076 13.6374 30.8912 12.6481 31.7783C11.6588 32.6654 10.8539 33.7386 10.2794 34.9368C9.70487 36.1349 9.37198 37.4345 9.29971 38.7613Z" fill="white"/>
</svg>
