<svg width="192" height="192" viewBox="0 0 192 192" fill="none" xmlns="http://www.w3.org/2000/svg">
<g clip-path="url(#clip0_2001_15)">
<path d="M191.225 42.3671C188.268 21.9986 169.109 5.9469 146.397 2.8365C142.566 2.31091 128.048 0.39814 94.4175 0.39814H94.1664C60.527 0.39814 53.3098 2.31091 49.4781 2.8365C27.3989 5.86074 7.23573 20.284 2.34371 40.8936C-0.00928456 51.0433 -0.260396 62.296 0.176723 72.618C0.799849 87.4205 0.920754 102.197 2.37162 116.939C3.37463 126.732 5.12438 136.446 7.60774 146.01C12.2579 163.673 31.0819 178.372 49.5246 184.369C69.2702 190.622 90.5049 191.66 110.851 187.367C113.09 186.885 115.303 186.324 117.492 185.687C122.43 184.231 128.225 182.602 132.484 179.742C132.543 179.702 132.591 179.65 132.624 179.59C132.658 179.53 132.677 179.464 132.679 179.397V165.112C132.678 165.049 132.662 164.987 132.632 164.93C132.602 164.874 132.558 164.824 132.505 164.786C132.451 164.747 132.389 164.72 132.323 164.706C132.256 164.692 132.188 164.692 132.121 164.707C119.086 167.591 105.727 169.038 92.325 169.015C69.2601 169.015 63.0567 158.874 61.2802 154.652C59.8524 151.003 58.9456 147.197 58.5831 143.33C58.5795 143.265 58.5924 143.2 58.6207 143.141C58.649 143.082 58.6923 143.029 58.7465 142.988C58.801 142.947 58.8651 142.918 58.9336 142.904C59.0021 142.89 59.0732 142.892 59.1412 142.908C71.9598 145.773 85.1001 147.219 98.2866 147.216C101.458 147.216 104.62 147.216 107.792 147.139C121.054 146.794 135.032 146.165 148.081 143.804C148.406 143.744 148.732 143.692 149.011 143.615C169.593 139.953 189.179 128.459 191.169 99.3537C191.244 98.2078 191.43 87.3515 191.43 86.1626C191.439 82.1216 192.834 57.497 191.225 42.3671ZM159.548 114.992H137.906V65.8803C137.906 55.541 133.256 50.268 123.797 50.268C113.4 50.268 108.191 56.5061 108.191 68.8269V95.7091H86.6797V68.8269C86.6797 56.5061 81.4622 50.268 71.0644 50.268C61.6616 50.268 56.9648 55.541 56.9555 65.8803V114.992H35.3322V64.3898C35.3322 54.0504 38.1813 45.8365 43.8793 39.7476C49.7571 33.6734 57.4672 30.5545 67.0373 30.5545C78.1139 30.5545 86.4843 34.5005 92.0645 42.3844L97.4496 50.7592L102.844 42.3844C108.424 34.5005 116.794 30.5545 127.853 30.5545C137.413 30.5545 145.123 33.6734 151.02 39.7476C156.718 45.8306 159.567 54.0446 159.567 64.3898L159.548 114.992Z" fill="white"/>
</g>
<defs>
<clipPath id="clip0_2001_15">
<rect width="192" height="192" fill="white"/>
</clipPath>
</defs>
</svg>
